<?xml version="1.0" encoding="UTF-8"?>
<!DOCTYPE svg PUBLIC "-//W3C//DTD SVG 1.1//EN" "http://www.w3.org/Graphics/SVG/1.1/DTD/svg11.dtd">
<!-- Creator: CorelDRAW 2020 (64-Bit) -->
<svg xmlns="http://www.w3.org/2000/svg" xml:space="preserve" width="91.0564in" height="6.66562in" version="1.1" style="shape-rendering:geometricPrecision; text-rendering:geometricPrecision; image-rendering:optimizeQuality; fill-rule:evenodd; clip-rule:evenodd"
viewBox="0 0 76781.52 5620.65"
 xmlns:xlink="http://www.w3.org/1999/xlink"
 xmlns:xodm="http://www.corel.com/coreldraw/odm/2003">
 <defs>
  <style type="text/css">
   <![CDATA[
    .fil0 {fill:white;fill-rule:nonzero}
   ]]>
  </style>
 </defs>
 <g id="Layer_x0020_1">
  <metadata id="CorelCorpID_0Corel-Layer"/>
  <g id="_1924996376288">
   <path class="fil0" d="M76781.52 3617.88c0,0 -1977.09,-887.83 -3791.68,-949.77 -1841.67,-61.94 -3412.51,0 -5660.44,309.71 -3060.42,412.94 -8964.62,2085.36 -12106.29,1176.89 -3141.68,-908.48 -3277.1,-949.77 -4875.01,-1527.89 -1787.51,-660.71 -5416.69,-1982.13 -9912.54,-1920.19 -4793.76,61.94 -13487.53,3427.43 -17062.56,3262.25 -379.16,-20.65 -1787.51,-165.18 -2843.76,-412.94 -1029.17,-247.76 -2545.84,-784.59 -4604.19,-970.42 -866.67,-82.59 -2247.92,-227.12 -3845.85,-185.83 -406.24,20.65 -1706.25,82.59 -3250.02,330.36 -1543.75,247.76 -2979.18,640.06 -4279.18,763.94 -2789.57,227.12 -4550,-103.24 -4550,-103.24l0 2229.9 76781.52 0 0 -2002.77zm-6147.94 -330.36c-189.58,206.47 -541.67,82.59 -1164.59,82.59 -622.92,0 -1652.09,247.77 -1570.84,227.12 81.25,-20.65 839.59,-309.71 1625.01,-392.29 812.5,-103.24 1272.92,-123.89 1110.41,82.59zm-4983.35 557.47c0,0 -650,41.3 -1516.67,185.82 -866.66,165.18 -2789.6,578.12 -4089.6,722.65 -2220.84,227.12 -4279.18,0 -4089.6,-20.65 216.66,-20.65 2600.01,123.88 4766.69,-227.12 893.75,-144.53 2518.76,-454.24 3358.34,-557.47 893.76,-123.89 1570.85,-103.24 1570.85,-103.24zm-15491.72 20.65c460.42,144.53 -3602.1,-970.42 -5010.43,-1259.48 -568.75,-123.88 -1679.17,-330.35 -2708.34,-412.94 -1056.25,-82.59 -2410.42,-82.59 -2383.34,-103.24 0,-41.3 1570.84,-165.18 3033.34,0 1462.51,165.18 1408.33,227.12 2058.34,330.36 1029.17,165.18 4550.01,1300.77 5010.43,1445.3zm3764.6 330.36c54.16,0 -216.66,82.59 -1300.01,-227.12 -1083.34,-309.71 -1814.59,-722.65 -1868.75,-763.94 -54.17,-20.65 947.92,371.65 1787.51,619.41 812.49,247.77 1354.17,371.65 1381.25,371.65zm22722.99 185.82c-27.08,-20.65 -514.59,-227.12 -1300.01,-516.18 -785.42,-289.06 -1868.75,-578.12 -1814.59,-557.47 54.17,0 947.92,123.88 2004.18,516.18 1056.26,392.3 1137.5,578.12 1110.42,557.47zm-68168.98 -1156.24c27.08,41.3 -514.58,41.3 -1218.75,247.77 -704.17,206.47 -1462.51,330.35 -2112.51,412.94 -1083.34,165.18 -3168.76,-20.65 -3060.42,-41.3 81.25,-20.65 2220.84,61.94 3385.43,-144.53 595.84,-103.24 650,-103.24 1543.75,-330.35 893.75,-227.12 1435.42,-206.47 1462.51,-144.53zm11293.79 495.53c108.34,20.65 947.92,330.35 2275.01,536.83 1327.09,227.12 2410.42,103.24 2410.42,165.18 0,61.94 -270.84,185.83 -1679.17,61.94 -1408.33,-123.88 -3114.6,-784.59 -3006.26,-763.94zm-379.17 516.18c54.17,-20.65 920.84,268.42 1543.76,351 622.92,61.94 514.58,103.24 514.58,123.89 0,20.65 -297.92,41.29 -731.25,-41.3 -460.42,-103.24 -1381.26,-412.94 -1327.1,-433.59zm5958.35 474.89c27.08,-41.3 947.92,-165.18 1516.67,-371.65 568.75,-206.47 487.5,-123.88 514.59,-103.24 27.08,20.65 -216.66,165.18 -650,268.42 -433.33,123.88 -1408.33,247.76 -1381.25,206.47zm-7637.53 -1383.36c-27.08,-61.94 81.25,-103.24 514.58,41.3 433.34,144.53 704.17,268.41 595.84,247.77 -108.33,-20.65 -243.75,-82.59 -677.08,-165.18 -460.42,-82.59 -406.25,-61.94 -433.34,-123.88zm-8368.78 -268.41c-54.16,0 568.75,-165.18 893.75,-185.83 325,-20.65 541.67,-20.65 541.67,41.3 0,61.94 -27.08,103.24 -433.34,82.59 -433.32,-20.65 -947.91,61.94 -1002.08,61.94zm31877.19 -1796.31c-27.08,-20.65 -650,61.94 -2031.26,61.94 -1354.17,0 -3683.35,495.53 -4658.35,722.65 -975.01,227.12 2708.34,-805.24 4468.77,-846.53 1760.43,-41.3 2247.93,82.59 2220.84,61.94z"/>
   <path class="fil0" d="M73016.91 1904.16c-27.08,20.65 -1245.83,-61.94 -1950.01,0 -1977.09,144.53 -4604.19,660.71 -4495.85,598.77 108.34,-61.94 3710.43,-640.06 4604.19,-681.36 1327.09,-82.59 1868.76,82.59 1841.67,82.59z"/>
   <path class="fil0" d="M61587.71 3597.23c-54.16,20.65 -1218.75,206.47 -2572.92,247.77 -1354.17,41.3 -3439.6,-123.88 -3331.26,-103.24 81.25,20.65 1597.93,371.65 3602.1,247.77 2004.17,-123.89 2356.24,-412.94 2302.08,-392.3z"/>
   <path class="fil0" d="M55385.61 2853.93c-27.08,20.65 541.67,206.47 866.67,227.12 325,20.65 541.67,0 541.67,-61.94 0,-61.94 -27.08,-103.24 -433.34,-82.59 -460.41,20.65 -947.91,-103.24 -974.99,-82.59z"/>
   <path class="fil0" d="M54437.69 3432.05c0,20.65 -1191.67,-247.77 -1706.25,-454.24 -514.58,-185.82 -1679.17,-640.06 -1652.09,-640.06 27.08,-20.65 1137.51,330.35 1706.25,536.83 568.75,206.47 1652.09,536.83 1652.09,557.47z"/>
   <path class="fil0" d="M41843.89 107.86c-27.08,20.65 -1245.83,-61.94 -1950.01,0 -1977.09,144.53 -4604.19,660.71 -4495.85,598.77 108.34,-61.94 3710.43,-640.06 4604.19,-681.36 1327.09,-82.59 1868.75,61.94 1841.67,82.59z"/>
   <path class="fil0" d="M11347.95 1635.75c0,0 325,61.94 785.42,20.65 460.42,-41.3 1570.84,-185.83 2220.84,-144.53 1137.51,82.59 2004.18,557.47 1895.84,536.83 -108.34,0 -1164.59,-454.24 -2329.17,-392.29 -487.5,20.65 -1381.25,103.24 -1814.59,82.59 -433.34,-20.65 -758.33,-103.24 -758.33,-103.24z"/>
   <path class="fil0" d="M20447.99 3019.11c54.16,-20.65 541.67,165.18 1164.59,227.12 622.92,41.3 568.75,61.94 568.75,103.24 0,20.65 -487.5,82.59 -920.84,0 -433.33,-103.24 -866.66,-309.71 -812.49,-330.35z"/>
   <path class="fil0" d="M4225.01 2895.23c0,20.65 1164.59,0 1814.59,-103.24 650,-103.24 1354.17,-392.3 1354.17,-412.94 0,-20.65 -731.25,165.18 -1381.25,289.06 -622.92,123.89 -1760.42,206.47 -1787.51,227.12z"/>
  </g>
 </g>
</svg>
